<?xml version="1.0" encoding="utf-8"?>
<svg version="1.1" id="Layer_1" x="0px" y="0px" viewBox="0 0 200 200" style="enable-background:new 0 0 200.7 197.7;" xmlns="http://www.w3.org/2000/svg">
  <style type="text/css">
	.st0{display:none;}
	.st1{display:inline;fill:none;}
	.st2{display:inline;}
	.st3{fill:#231F20;}
</style>
  <g class="st0">
    <path class="st1" d="M368.7,67.1h-21.3v28.1h21.2c10.4,0,17.8-5.3,17.8-14.2v-0.2C386.4,72.2,379.9,67.1,368.7,67.1L368.7,67.1z M437.5,97.6h-21.8V122h23.2c10.5,0,17-4.6,17-12.3v-0.2C455.9,101.9,449.5,97.6,437.5,97.6L437.5,97.6z M452,78.3v-0.2 c0-6.8-5.4-11.3-15.3-11.3h-21v23.8h20.4C445.5,90.7,452,86.4,452,78.3L452,78.3z M508.3,65.9c-15.8,0-27.1,12.6-27.1,28.3v0.2 c0,15.7,11.5,28.5,27.3,28.5c15.8,0,27.1-12.6,27.1-28.3v-0.2C535.6,78.7,524.1,65.9,508.3,65.9L508.3,65.9z M278.1,103.6h31.8 L294,68.2L278.1,103.6z M586.2,67.1h-21.3v28.1h21.2c10.4,0,17.8-5.3,17.8-14.2v-0.2C603.9,72.2,597.4,67.1,586.2,67.1L586.2,67.1z M66.8,80.2l63.9-20.5c0-0.1-0.1-0.2-0.1-0.3c-2.4-4.2-5.2-8.2-8.3-11.9L65.7,76.7L106.8,34C74,12.8,30.2,22.3,9,55.1 s-11.7,76.6,21.1,97.7c0.2,0.1,0.4,0.2,0.5,0.3l1.2-13.1l34.3,15.1l0.7,9.1c0.6,0,1.3,0.1,1.9,0.1c33.3,0,62.1-23.3,69.1-55.8 l-72.2-25l73.6,5.3c-0.2-3.7-0.8-7.4-1.6-11.1L66.8,80.2z M31.3,96.3v-8h2.8V71.8h-2.8v-4.7L46.7,52v-1c0-0.8,0.7-1.5,1.5-1.5 s1.5,0.7,1.5,1.5v1.1l15.4,15.1v4.7h-2.8v16.4h2.8v8h-3.8l2,24.1l-28.5-12.6l1-11.5L31.3,96.3z M64.4,134.9l0.5,5.9l-31.9-14 l0.5-5.4L64.4,134.9z M33.8,117.2l0.5-5.4l29.2,12.9l0.5,5.8L33.8,117.2z M32.2,136.1l0.5-5.4l32.6,14.4l0.5,5.8L32.2,136.1z"/>
    <path class="st2" d="M63.6,124.7l-29.3-12.9L63.6,124.7z M244.9,59.4c-2.2,0-3.9,1.8-4,4v27.3H201V63.3c0-2.2-1.7-3.9-3.9-3.9 s-3.9,1.7-3.9,3.9v62.2c0,2.2,1.7,3.9,3.9,3.9s3.9-1.7,3.9-3.9l0,0V97.9h39.9v27.7c0,2.2,1.7,3.9,3.8,4c2.2,0,3.9-1.7,4-3.8v-0.1 V63.3C248.7,61.2,247,59.4,244.9,59.4L244.9,59.4z M299.2,62.5c-0.7-2.1-2.6-3.5-4.8-3.5H294c-2.5,0-4,1.3-4.9,3.5l-28,61.3 c-0.3,0.6-0.5,1.4-0.5,2.1c0,2,1.6,3.5,3.5,3.6l0,0c1.7,0,3.2-1.1,3.8-2.7l7.2-16.1H313l7.2,15.9c0.6,1.7,2.1,2.8,3.9,2.9 c2.1,0,3.8-1.7,3.8-3.8l0,0c0-0.7-0.2-1.4-0.5-2L299.2,62.5z M278.1,103.6L294,68.2l15.9,35.4H278.1z M369.3,59.9h-25.9 c-2.1,0-3.9,1.8-3.9,4v61.7c0,2.2,1.7,3.9,3.9,3.9s3.9-1.7,3.9-3.9l0,0v-23.4h20l19.5,25.3c0.8,1.2,2.2,2,3.7,2.1 c2.1-0.1,3.8-1.7,4-3.9c0-1.1-0.5-2.1-1.3-2.9L376,100.7c10.8-2.1,18.5-8.7,18.5-20.1v-0.2c0.1-5.1-1.8-10-5.3-13.6 C384.6,62.4,377.8,59.9,369.3,59.9L369.3,59.9z M386.4,80.9c0,8.9-7.4,14.2-17.8,14.2h-21.2v-28h21.3c11.2,0,17.7,5.1,17.7,13.6 V80.9z M448.9,93.2c5.4-2.4,11-7,11-16V77c0.1-4.1-1.5-8.1-4.4-11.1c-4-3.9-10.2-6.1-18.1-6.1h-25.6c-2.1,0-3.9,1.8-3.9,4V125 c0,2.1,1.7,3.9,3.9,3.9h26.9c15.1,0,25.1-7,25.1-18.9v-0.2C463.8,100.4,457.1,95.7,448.9,93.2L448.9,93.2z M415.7,66.9h21 c9.9,0,15.3,4.4,15.3,11.3v0.2c0,8.1-6.5,12.3-15.9,12.3h-20.4V66.9z M455.9,109.6c0,7.7-6.5,12.3-17,12.3h-23.2V97.6h21.8 C449.5,97.6,455.9,101.9,455.9,109.6L455.9,109.6z M508.5,58.7c-21,0-35.4,16.7-35.4,35.8v0.2c0,19.1,14.1,35.6,35.2,35.6 c21.1,0,35.4-16.7,35.4-35.8v-0.2C543.7,75.2,529.5,58.7,508.5,58.7z M535.6,94.6c0,15.7-11.3,28.3-27.1,28.3 c-15.8,0-27.3-12.8-27.3-28.5v-0.2c0-15.7,11.3-28.3,27.1-28.3c15.8,0,27.3,12.8,27.3,28.5V94.6z M586.8,59.9h-25.9 c-2.1,0-3.9,1.8-3.9,4v61.7c0,2.2,1.7,3.9,3.8,4c2.2,0,3.9-1.7,4-3.8v-0.1v-23.4h19.9l19.5,25.3c0.8,1.2,2.2,2,3.7,2.1 c2.1-0.1,3.8-1.7,4-3.9c0-1.1-0.5-2.1-1.3-2.9l-17.2-22.1c10.8-2.1,18.5-8.7,18.5-20v-0.2c0.1-5.1-1.8-10-5.3-13.6 C602.1,62.4,595.3,59.8,586.8,59.9L586.8,59.9z M603.9,80.9c0,8.9-7.4,14.2-17.8,14.2h-21.2v-28h21.3c11.2,0,17.7,5.1,17.7,13.6 V80.9z M31.8,140.1l-1.2,13.1c10.8,6.9,23.3,10.8,36.1,11.1l-0.7-9.1L31.8,140.1z M34.7,107.8l28.5,12.6l-2-24.1h3.7v-8h-2.8V71.8 h2.8v-4.7l-15.3-15V51c0-0.8-0.7-1.4-1.5-1.4s-1.4,0.6-1.4,1.4v1.1l-15.4,15v4.7h2.8v16.4h-2.8v8h4.4L34.7,107.8z M38.5,71.8h19.2 v16.4h-4.6v-7c0-2.8-2.2-5.1-5-5.1s-5.1,2.2-5.1,5v0.1v7h-4.6L38.5,71.8z M33,126.7l31.9,14l-0.5-5.8l-30.9-13.6 C33.5,121.2,33,126.7,33,126.7z M32.7,130.7l-0.5,5.4l33.5,14.8l-0.5-5.8L32.7,130.7z M34.3,111.8l-0.5,5.4L64,130.5l-0.5-5.8 C63.6,124.7,34.3,111.8,34.3,111.8z M134.2,58.5l12-3.9c-0.1-0.1-0.1-0.2-0.2-0.3c-2.6-5.1-5.7-9.9-9.3-14.4l-11.3,5.8 C128.9,49.7,131.8,54,134.2,58.5z"/>
    <path class="st2" d="M131.5,65.3c0,0.1,0.1,0.2,0.1,0.3l3.4-1.1c-2.4-4.5-5.3-8.8-8.7-12.7l-3.3,1.7C126.3,57,129.1,61,131.5,65.3 L131.5,65.3z M143.7,95l12.5,0.9c-0.2-4.3-0.7-8.6-1.5-12.8l-12.6,0.4C143,87.3,143.5,91.1,143.7,95L143.7,95z"/>
    <path class="st2" d="M138.5,83.7c0.8,3.6,1.4,7.3,1.6,11.1l3.6,0.3c-0.2-3.8-0.8-7.7-1.6-11.4H138.5z"/>
    <path class="st2" d="M69.6,173.8c-0.6,0-1.1,0-1.6,0l0.5,5.8l-37.7-12l0.4-4.5c-35.1-21.2-46.4-66.9-25.1-102S73,14.7,108.1,36 c0.7,0.4,1.4,0.9,2.1,1.3l8.8-9.1C79.5,1,25.5,10.8-1.7,50.2s-17.4,93.4,22,120.7c39.4,27.2,93.4,17.4,120.7-22 c6.1-8.8,10.5-18.7,13-29.1l-11.8-4.1C134.6,149.6,104.4,173.8,69.6,173.8z"/>
    <path class="st2" d="M69.6,170.3c-0.6,0-1.3,0-1.9,0l0.3,3.5c0.5,0,1.1,0,1.6,0c34.8,0,64.9-24.2,72.5-58.1l-3.3-1.2 C131.7,147,102.9,170.2,69.6,170.3L69.6,170.3z M-1.1,99.5c0-39,31.6-70.7,70.7-70.8c13.5,0,26.8,3.9,38.2,11.1l2.5-2.6 C75.8,14.9,29.8,24.6,7.4,59s-12.7,80.4,21.7,102.8c0.7,0.5,1.4,0.9,2.1,1.3l0.4-4C11.2,146.1-1.1,123.7-1.1,99.5L-1.1,99.5z M30.8,167.6l37.7,12l-0.5-5.8c-13-0.3-25.7-3.9-36.8-10.7L30.8,167.6z"/>
    <path class="st2" d="M31.2,163.1c11.1,6.7,23.8,10.4,36.8,10.7l-0.3-3.5c-12.8-0.3-25.3-4.2-36.1-11.1L31.2,163.1z M126.4,51.7 l11.3-5.8c-0.5-0.6-1-1.3-1.5-1.9c-4.4-5.2-9.4-10-14.8-14c-0.8-0.6-1.6-1.2-2.4-1.7l-8.8,9.1C116.3,41.3,121.7,46.1,126.4,51.7z"/>
    <path class="st2" d="M66.6,82.6l56.6-29.3l3.3-1.7c-4.7-5.6-10.2-10.4-16.2-14.4l-2.5,2.6L66.6,82.6z M123.2,53.4l3.3-1.7 L123.2,53.4z M156.2,95.9L143.7,95c0.1,1.5,0.2,3,0.2,4.5c0,5.4-0.6,10.8-1.8,16.1l11.8,4.1c0-0.2,0.1-0.4,0.1-0.5 c1.5-6.5,2.3-13.1,2.3-19.7c0-0.2,0-0.5,0-0.7C156.3,97.9,156.3,96.9,156.2,95.9z"/>
    <path class="st2" d="M143.7,95l-3.6-0.3l-73.6-5.3l72.2,25l3.3,1.2c1.2-5.3,1.8-10.7,1.8-16.1C143.9,98,143.8,96.5,143.7,95 L143.7,95z M142.2,83.5l12.6-0.4c-0.2-1.2-0.5-2.5-0.8-3.7c-1.6-6.5-3.9-12.8-6.9-18.8l-12,3.9C138.3,70.4,140.7,76.9,142.2,83.5z"/>
    <path class="st2" d="M67.7,86.1l70.8-2.4l3.6-0.1c-1.5-6.7-3.8-13.1-7.1-19.1l-3.4,1.1L67.7,86.1z"/>
  </g>
  <g>
    <g>
      <polygon class="st3" points="80.7,28.9 110.6,58.9 140.4,58.9 140.4,88.7 170.3,118.6 170.3,28.9 &#9;&#9;" style="fill: rgb(255, 255, 255);"/>
      <polygon class="st3" points="60.5,138.8 60.5,109 30.5,79.1 30.5,168.8 120.2,168.8 90.2,138.8 &#9;&#9;" style="fill: rgb(255, 255, 255);"/>
      <polygon class="st3" points="51.7,28.9 30.5,28.9 30.5,50.1 60.5,80.1 60.5,37.7 &#9;&#9;" style="fill: rgb(255, 255, 255);"/>
      <polygon class="st3" points="68.7,46 68.7,88.3 149.2,168.8 170.3,168.8 170.3,147.6 &#9;&#9;" style="fill: rgb(255, 255, 255);"/>
    </g>
  </g>
</svg>