<?xml version="1.0" encoding="UTF-8" standalone="no"?>
<!-- Created with Inkscape (http://www.inkscape.org/) -->

<svg
   xmlns:dc="http://purl.org/dc/elements/1.1/"
   xmlns:cc="http://creativecommons.org/ns#"
   xmlns:rdf="http://www.w3.org/1999/02/22-rdf-syntax-ns#"
   xmlns:svg="http://www.w3.org/2000/svg"
   xmlns="http://www.w3.org/2000/svg"
   xmlns:sodipodi="http://sodipodi.sourceforge.net/DTD/sodipodi-0.dtd"
   xmlns:inkscape="http://www.inkscape.org/namespaces/inkscape"
   width="650"
   height="500"
   viewBox="0 0 171.97916 132.29167"
   version="1.1"
   id="svg8"
   inkscape:version="0.92.1 r15371"
   sodipodi:docname="background.svg"
   inkscape:export-filename="/home/lance/git/cinc/artwork/projects/cinc/resources/dmg/background.png"
   inkscape:export-xdpi="96"
   inkscape:export-ydpi="96">
  <defs
     id="defs2" />
  <sodipodi:namedview
     id="base"
     pagecolor="#ffffff"
     bordercolor="#666666"
     borderopacity="1.0"
     inkscape:pageopacity="0.0"
     inkscape:pageshadow="2"
     inkscape:zoom="1.682"
     inkscape:cx="325"
     inkscape:cy="250"
     inkscape:document-units="px"
     inkscape:current-layer="layer1"
     showgrid="false"
     showguides="false"
     units="px"
     inkscape:snap-grids="true"
     inkscape:snap-page="false"
     inkscape:window-width="1920"
     inkscape:window-height="1016"
     inkscape:window-x="0"
     inkscape:window-y="464"
     inkscape:window-maximized="1" />
  <metadata
     id="metadata5">
    <rdf:RDF>
      <cc:Work
         rdf:about="">
        <dc:format>image/svg+xml</dc:format>
        <dc:type
           rdf:resource="http://purl.org/dc/dcmitype/StillImage" />
        <dc:title></dc:title>
      </cc:Work>
    </rdf:RDF>
  </metadata>
  <g
     inkscape:label="Layer 1"
     inkscape:groupmode="layer"
     id="layer1"
     transform="translate(0,-164.70832)">
    <g
       id="g106"
       transform="matrix(0.5099144,0,0,0.5099144,-3.7775945,158.98172)">
      <g
         id="g24"
         class="st0"
         style="display:none">
        <path
           id="path4"
           d="m 398.4,67.1 h -21.3 v 28.1 h 21.2 c 10.4,0 17.8,-5.3 17.8,-14.2 v -0.2 c 0,-8.6 -6.5,-13.7 -17.7,-13.7 z m 68.8,30.5 H 445.4 V 122 h 23.2 c 10.5,0 17,-4.6 17,-12.3 v -0.2 c 0,-7.6 -6.4,-11.9 -18.4,-11.9 z m 14.5,-19.3 v -0.2 c 0,-6.8 -5.4,-11.3 -15.3,-11.3 h -21 v 23.8 h 20.4 c 9.4,0.1 15.9,-4.2 15.9,-12.3 z M 538,65.9 c -15.8,0 -27.1,12.6 -27.1,28.3 v 0.2 c 0,15.7 11.5,28.5 27.3,28.5 15.8,0 27.1,-12.6 27.1,-28.3 V 94.4 C 565.3,78.7 553.8,65.9 538,65.9 Z m -230.2,37.7 h 31.8 L 323.7,68.2 Z M 615.9,67.1 h -21.3 v 28.1 h 21.2 c 10.4,0 17.8,-5.3 17.8,-14.2 v -0.2 c 0,-8.6 -6.5,-13.7 -17.7,-13.7 z M 96.5,80.2 160.4,59.7 c 0,-0.1 -0.1,-0.2 -0.1,-0.3 -2.4,-4.2 -5.2,-8.2 -8.3,-11.9 L 95.4,76.7 136.5,34 C 103.7,12.8 59.9,22.3 38.7,55.1 17.5,87.9 27,131.7 59.8,152.8 c 0.2,0.1 0.4,0.2 0.5,0.3 l 1.2,-13.1 34.3,15.1 0.7,9.1 c 0.6,0 1.3,0.1 1.9,0.1 33.3,0 62.1,-23.3 69.1,-55.8 l -72.2,-25 73.6,5.3 c -0.2,-3.7 -0.8,-7.4 -1.6,-11.1 z M 61,96.3 v -8 h 2.8 V 71.8 H 61 V 67.1 L 76.4,52 v -1 c 0,-0.8 0.7,-1.5 1.5,-1.5 0.8,0 1.5,0.7 1.5,1.5 v 1.1 l 15.4,15.1 v 4.7 H 92 v 16.4 h 2.8 v 8 H 91 l 2,24.1 -28.5,-12.6 1,-11.5 z m 33.1,38.6 0.5,5.9 -31.9,-14 0.5,-5.4 z m -30.6,-17.7 0.5,-5.4 29.2,12.9 0.5,5.8 z m -1.6,18.9 0.5,-5.4 32.6,14.4 0.5,5.8 z"
           class="st1"
           inkscape:connector-curvature="0"
           style="display:inline;fill:none" />
        <path
           id="path6"
           d="M 93.3,124.7 64,111.8 Z M 274.6,59.4 c -2.2,0 -3.9,1.8 -4,4 V 90.7 H 230.7 V 63.3 c 0,-2.2 -1.7,-3.9 -3.9,-3.9 -2.2,0 -3.9,1.7 -3.9,3.9 v 62.2 c 0,2.2 1.7,3.9 3.9,3.9 2.2,0 3.9,-1.7 3.9,-3.9 v 0 -27.6 h 39.9 v 27.7 c 0,2.2 1.7,3.9 3.8,4 2.2,0 3.9,-1.7 4,-3.8 v -0.1 -62.4 c 0,-2.1 -1.7,-3.9 -3.8,-3.9 z m 54.3,3.1 C 328.2,60.4 326.3,59 324.1,59 h -0.4 c -2.5,0 -4,1.3 -4.9,3.5 l -28,61.3 c -0.3,0.6 -0.5,1.4 -0.5,2.1 0,2 1.6,3.5 3.5,3.6 v 0 c 1.7,0 3.2,-1.1 3.8,-2.7 l 7.2,-16.1 h 37.9 l 7.2,15.9 c 0.6,1.7 2.1,2.8 3.9,2.9 2.1,0 3.8,-1.7 3.8,-3.8 v 0 c 0,-0.7 -0.2,-1.4 -0.5,-2 z m -21.1,41.1 15.9,-35.4 15.9,35.4 z M 399,59.9 h -25.9 c -2.1,0 -3.9,1.8 -3.9,4 v 61.7 c 0,2.2 1.7,3.9 3.9,3.9 2.2,0 3.9,-1.7 3.9,-3.9 v 0 -23.4 h 20 l 19.5,25.3 c 0.8,1.2 2.2,2 3.7,2.1 2.1,-0.1 3.8,-1.7 4,-3.9 0,-1.1 -0.5,-2.1 -1.3,-2.9 l -17.2,-22.1 c 10.8,-2.1 18.5,-8.7 18.5,-20.1 v -0.2 c 0.1,-5.1 -1.8,-10 -5.3,-13.6 -4.6,-4.4 -11.4,-6.9 -19.9,-6.9 z m 17.1,21 c 0,8.9 -7.4,14.2 -17.8,14.2 h -21.2 v -28 h 21.3 c 11.2,0 17.7,5.1 17.7,13.6 z m 62.5,12.3 c 5.4,-2.4 11,-7 11,-16 V 77 c 0.1,-4.1 -1.5,-8.1 -4.4,-11.1 -4,-3.9 -10.2,-6.1 -18.1,-6.1 h -25.6 c -2.1,0 -3.9,1.8 -3.9,4 V 125 c 0,2.1 1.7,3.9 3.9,3.9 h 26.9 c 15.1,0 25.1,-7 25.1,-18.9 v -0.2 c 0,-9.4 -6.7,-14.1 -14.9,-16.6 z M 445.4,66.9 h 21 c 9.9,0 15.3,4.4 15.3,11.3 v 0.2 c 0,8.1 -6.5,12.3 -15.9,12.3 h -20.4 z m 40.2,42.7 c 0,7.7 -6.5,12.3 -17,12.3 H 445.4 V 97.6 h 21.8 c 12,0 18.4,4.3 18.4,12 z m 52.6,-50.9 c -21,0 -35.4,16.7 -35.4,35.8 v 0.2 c 0,19.1 14.1,35.6 35.2,35.6 21.1,0 35.4,-16.7 35.4,-35.8 v -0.2 c 0,-19.1 -14.2,-35.6 -35.2,-35.6 z m 27.1,35.9 c 0,15.7 -11.3,28.3 -27.1,28.3 -15.8,0 -27.3,-12.8 -27.3,-28.5 v -0.2 c 0,-15.7 11.3,-28.3 27.1,-28.3 15.8,0 27.3,12.8 27.3,28.5 z m 51.2,-34.7 h -25.9 c -2.1,0 -3.9,1.8 -3.9,4 v 61.7 c 0,2.2 1.7,3.9 3.8,4 2.2,0 3.9,-1.7 4,-3.8 v -0.1 -23.4 h 19.9 l 19.5,25.3 c 0.8,1.2 2.2,2 3.7,2.1 2.1,-0.1 3.8,-1.7 4,-3.9 0,-1.1 -0.5,-2.1 -1.3,-2.9 l -17.2,-22.1 c 10.8,-2.1 18.5,-8.7 18.5,-20 v -0.2 c 0.1,-5.1 -1.8,-10 -5.3,-13.6 -4.5,-4.6 -11.3,-7.2 -19.8,-7.1 z m 17.1,21 c 0,8.9 -7.4,14.2 -17.8,14.2 h -21.2 v -28 h 21.3 c 11.2,0 17.7,5.1 17.7,13.6 z m -572.1,59.2 -1.2,13.1 c 10.8,6.9 23.3,10.8 36.1,11.1 l -0.7,-9.1 z m 2.9,-32.3 28.5,12.6 -2,-24.1 h 3.7 v -8 H 91.8 V 71.8 h 2.8 V 67.1 L 79.3,52.1 V 51 c 0,-0.8 -0.7,-1.4 -1.5,-1.4 -0.8,0 -1.4,0.6 -1.4,1.4 v 1.1 L 61,67.1 v 4.7 h 2.8 V 88.2 H 61 v 8 h 4.4 z m 3.8,-36 h 19.2 v 16.4 h -4.6 v -7 c 0,-2.8 -2.2,-5.1 -5,-5.1 -2.8,0 -5.1,2.2 -5.1,5 v 0.1 7 h -4.6 z m -5.5,54.9 31.9,14 -0.5,-5.8 -30.9,-13.6 c 0,-0.1 -0.5,5.4 -0.5,5.4 z m -0.3,4 -0.5,5.4 33.5,14.8 -0.5,-5.8 z m 1.6,-18.9 -0.5,5.4 30.2,13.3 -0.5,-5.8 C 93.3,124.7 64,111.8 64,111.8 Z m 99.9,-53.3 12,-3.9 c -0.1,-0.1 -0.1,-0.2 -0.2,-0.3 -2.6,-5.1 -5.7,-9.9 -9.3,-14.4 l -11.3,5.8 c 3.5,4 6.4,8.3 8.8,12.8 z"
           class="st2"
           inkscape:connector-curvature="0"
           style="display:inline" />
        <path
           id="path8"
           d="m 161.2,65.3 c 0,0.1 0.1,0.2 0.1,0.3 l 3.4,-1.1 C 162.3,60 159.4,55.7 156,51.8 l -3.3,1.7 c 3.3,3.5 6.1,7.5 8.5,11.8 z m 12.2,29.7 12.5,0.9 c -0.2,-4.3 -0.7,-8.6 -1.5,-12.8 l -12.6,0.4 c 0.9,3.8 1.4,7.6 1.6,11.5 z"
           class="st2"
           inkscape:connector-curvature="0"
           style="display:inline" />
        <path
           id="path10"
           d="m 168.2,83.7 c 0.8,3.6 1.4,7.3 1.6,11.1 l 3.6,0.3 c -0.2,-3.8 -0.8,-7.7 -1.6,-11.4 z"
           class="st2"
           inkscape:connector-curvature="0"
           style="display:inline" />
        <path
           id="path12"
           d="m 99.3,173.8 c -0.6,0 -1.1,0 -1.6,0 l 0.5,5.8 -37.7,-12 0.4,-4.5 C 25.8,141.9 14.5,96.2 35.8,61.1 57.1,26 102.7,14.7 137.8,36 c 0.7,0.4 1.4,0.9 2.1,1.3 l 8.8,-9.1 C 109.2,1 55.2,10.8 28,50.2 0.8,89.6 10.6,143.6 50,170.9 c 39.4,27.2 93.4,17.4 120.7,-22 6.1,-8.8 10.5,-18.7 13,-29.1 l -11.8,-4.1 c -7.6,33.9 -37.8,58.1 -72.6,58.1 z"
           class="st2"
           inkscape:connector-curvature="0"
           style="display:inline" />
        <path
           id="path14"
           d="m 99.3,170.3 c -0.6,0 -1.3,0 -1.9,0 l 0.3,3.5 c 0.5,0 1.1,0 1.6,0 34.8,0 64.9,-24.2 72.5,-58.1 l -3.3,-1.2 c -7.1,32.5 -35.9,55.7 -69.2,55.8 z M 28.6,99.5 c 0,-39 31.6,-70.7 70.7,-70.8 13.5,0 26.8,3.9 38.2,11.1 L 140,37.2 C 105.5,14.9 59.5,24.6 37.1,59 14.7,93.4 24.4,139.4 58.8,161.8 c 0.7,0.5 1.4,0.9 2.1,1.3 l 0.4,-4 C 40.9,146.1 28.6,123.7 28.6,99.5 Z m 31.9,68.1 37.7,12 -0.5,-5.8 C 84.7,173.5 72,169.9 60.9,163.1 Z"
           class="st2"
           inkscape:connector-curvature="0"
           style="display:inline" />
        <path
           id="path16"
           d="m 60.9,163.1 c 11.1,6.7 23.8,10.4 36.8,10.7 l -0.3,-3.5 C 84.6,170 72.1,166.1 61.3,159.2 Z m 95.2,-111.4 11.3,-5.8 c -0.5,-0.6 -1,-1.3 -1.5,-1.9 -4.4,-5.2 -9.4,-10 -14.8,-14 -0.8,-0.6 -1.6,-1.2 -2.4,-1.7 l -8.8,9.1 c 6.1,3.9 11.5,8.7 16.2,14.3 z"
           class="st2"
           inkscape:connector-curvature="0"
           style="display:inline" />
        <path
           id="path18"
           d="m 96.3,82.6 56.6,-29.3 3.3,-1.7 C 151.5,46 146,41.2 140,37.2 l -2.5,2.6 z m 56.6,-29.2 3.3,-1.7 z m 33,42.5 -12.5,-0.9 c 0.1,1.5 0.2,3 0.2,4.5 0,5.4 -0.6,10.8 -1.8,16.1 l 11.8,4.1 c 0,-0.2 0.1,-0.4 0.1,-0.5 1.5,-6.5 2.3,-13.1 2.3,-19.7 0,-0.2 0,-0.5 0,-0.7 0,-0.9 0,-1.9 -0.1,-2.9 z"
           class="st2"
           inkscape:connector-curvature="0"
           style="display:inline" />
        <path
           id="path20"
           d="m 173.4,95 -3.6,-0.3 -73.6,-5.3 72.2,25 3.3,1.2 c 1.2,-5.3 1.8,-10.7 1.8,-16.1 0.1,-1.5 0,-3 -0.1,-4.5 z m -1.5,-11.5 12.6,-0.4 c -0.2,-1.2 -0.5,-2.5 -0.8,-3.7 -1.6,-6.5 -3.9,-12.8 -6.9,-18.8 l -12,3.9 c 3.2,5.9 5.6,12.4 7.1,19 z"
           class="st2"
           inkscape:connector-curvature="0"
           style="display:inline" />
        <path
           id="path22"
           d="m 97.4,86.1 70.8,-2.4 3.6,-0.1 C 170.3,76.9 168,70.5 164.7,64.5 l -3.4,1.1 z"
           class="st2"
           inkscape:connector-curvature="0"
           style="display:inline" />
      </g>
      <g
         inkscape:export-ydpi="96"
         inkscape:export-xdpi="96"
         id="g59">
        <g
           id="g47">
          <polygon
             style="fill:#4400aa"
             id="polygon26"
             points="185.1,29.6 95.5,29.6 125.4,59.6 155.2,59.6 155.2,89.4 185.1,119.3 "
             class="st3" />
          <polygon
             style="fill:#4400aa"
             id="polygon28"
             points="105,139.5 75.3,139.5 75.3,109.7 45.3,79.8 45.3,169.5 135,169.5 "
             class="st3" />
          <polygon
             style="fill:#7f2aff"
             id="polygon30"
             points="66.5,29.6 45.3,29.6 45.3,50.8 75.3,80.8 75.3,38.4 "
             class="st3" />
          <polygon
             style="fill:#7f2aff"
             id="polygon32"
             points="83.5,46.7 83.5,89 164,169.5 185.1,169.5 185.1,148.3 "
             class="st3" />
        </g>
        <g
           id="g44">
          <path
             style="fill:#231f20"
             inkscape:connector-curvature="0"
             id="path36"
             d="m 72.5,242.9 c -6.5,6.4 -14.8,9.4 -23.9,9.4 -23.4,0 -33.3,-16.1 -33.4,-32.5 -0.1,-16.5 10.6,-33.2 33.4,-33.2 8.5,0 16.7,3.2 23.1,9.6 l -7.9,7.6 c -4.1,-4 -9.7,-5.9 -15.2,-5.9 -15.2,0 -21.7,11.3 -21.7,21.8 0.1,10.4 6.1,21.3 21.7,21.3 5.5,0 11.7,-2.3 15.8,-6.4 z"
             class="st3" />
          <path
             style="fill:#231f20"
             inkscape:connector-curvature="0"
             id="path38"
             d="m 77.1,250.8 v -63 h 11.8 v 63 z"
             class="st3" />
          <path
             style="fill:#231f20"
             inkscape:connector-curvature="0"
             id="path40"
             d="m 139.2,187.8 h 11.9 v 63 h -11.9 v 0.1 l -28.6,-42.5 v 42.4 H 98.7 v -62.9 h 11.8 l 28.7,39 z"
             class="st3" />
          <path
             style="fill:#231f20"
             inkscape:connector-curvature="0"
             id="path42"
             d="m 215.2,242.9 c -6.5,6.4 -14.8,9.4 -23.9,9.4 -23.4,0 -33.3,-16.1 -33.4,-32.5 -0.1,-16.5 10.6,-33.2 33.4,-33.2 8.5,0 16.7,3.2 23.1,9.6 l -7.9,7.6 c -4.1,-4 -9.7,-5.9 -15.2,-5.9 -15.2,0 -21.7,11.3 -21.7,21.8 0.1,10.4 6.1,21.3 21.7,21.3 5.5,0 11.7,-2.3 15.8,-6.4 z"
             class="st3" />
        </g>
      </g>
    </g>
  </g>
  <style
     id="style2"
     type="text/css">
	.st0{display:none;}
	.st1{display:inline;fill:none;}
	.st2{display:inline;}
	.st3{fill:#231F20;}
</style>
</svg>
