<?xml version="1.0" encoding="UTF-8" standalone="no"?>
<svg
   xmlns:dc="http://purl.org/dc/elements/1.1/"
   xmlns:cc="http://creativecommons.org/ns#"
   xmlns:rdf="http://www.w3.org/1999/02/22-rdf-syntax-ns#"
   xmlns:svg="http://www.w3.org/2000/svg"
   xmlns="http://www.w3.org/2000/svg"
   xmlns:sodipodi="http://sodipodi.sourceforge.net/DTD/sodipodi-0.dtd"
   xmlns:inkscape="http://www.inkscape.org/namespaces/inkscape"
   version="1.1"
   id="Layer_1"
   x="0px"
   y="0px"
   viewBox="0 0 200 200"
   xml:space="preserve"
   sodipodi:docname="cinc-avatar-purple.svg"
   inkscape:version="0.92.4 (5da689c313, 2019-01-14)"
   width="200"
   height="200"
   inkscape:export-filename="/home/lance/git/cinc/artwork/projects/cinc/icon/purple/cinc-avatar-purple.png"
   inkscape:export-xdpi="96"
   inkscape:export-ydpi="96"><metadata
     id="metadata43"><rdf:RDF><cc:Work
         rdf:about=""><dc:format>image/svg+xml</dc:format><dc:type
           rdf:resource="http://purl.org/dc/dcmitype/StillImage" /><dc:title /></cc:Work></rdf:RDF></metadata><defs
     id="defs41" /><sodipodi:namedview
     pagecolor="#ffffff"
     bordercolor="#666666"
     borderopacity="1"
     objecttolerance="10"
     gridtolerance="10"
     guidetolerance="10"
     inkscape:pageopacity="0"
     inkscape:pageshadow="2"
     inkscape:window-width="1920"
     inkscape:window-height="1016"
     id="namedview39"
     showgrid="false"
     inkscape:zoom="4.3449672"
     inkscape:cx="7.8291637"
     inkscape:cy="92.389443"
     inkscape:window-x="0"
     inkscape:window-y="27"
     inkscape:window-maximized="1"
     inkscape:current-layer="Layer_1" /><style
     type="text/css"
     id="style2">
	.st0{display:none;}
	.st1{display:inline;fill:none;}
	.st2{display:inline;}
	.st3{fill:#231F20;}
</style><g
     class="st0"
     id="g24"
     style="display:none"
     transform="translate(0,2.3000031)"><path
       class="st1"
       d="m 368.7,67.1 h -21.3 v 28.1 h 21.2 c 10.4,0 17.8,-5.3 17.8,-14.2 v -0.2 c 0,-8.6 -6.5,-13.7 -17.7,-13.7 z m 68.8,30.5 H 415.7 V 122 h 23.2 c 10.5,0 17,-4.6 17,-12.3 v -0.2 c 0,-7.6 -6.4,-11.9 -18.4,-11.9 z M 452,78.3 v -0.2 c 0,-6.8 -5.4,-11.3 -15.3,-11.3 h -21 v 23.8 h 20.4 c 9.4,0.1 15.9,-4.2 15.9,-12.3 z m 56.3,-12.4 c -15.8,0 -27.1,12.6 -27.1,28.3 v 0.2 c 0,15.7 11.5,28.5 27.3,28.5 15.8,0 27.1,-12.6 27.1,-28.3 v -0.2 c 0,-15.7 -11.5,-28.5 -27.3,-28.5 z m -230.2,37.7 h 31.8 L 294,68.2 Z M 586.2,67.1 h -21.3 v 28.1 h 21.2 c 10.4,0 17.8,-5.3 17.8,-14.2 v -0.2 c 0,-8.6 -6.5,-13.7 -17.7,-13.7 z M 66.8,80.2 130.7,59.7 c 0,-0.1 -0.1,-0.2 -0.1,-0.3 -2.4,-4.2 -5.2,-8.2 -8.3,-11.9 L 65.7,76.7 106.8,34 C 74,12.8 30.2,22.3 9,55.1 c -21.2,32.8 -11.7,76.6 21.1,97.7 0.2,0.1 0.4,0.2 0.5,0.3 l 1.2,-13.1 34.3,15.1 0.7,9.1 c 0.6,0 1.3,0.1 1.9,0.1 33.3,0 62.1,-23.3 69.1,-55.8 l -72.2,-25 73.6,5.3 C 139,85.1 138.4,81.4 137.6,77.7 Z M 31.3,96.3 v -8 h 2.8 V 71.8 H 31.3 V 67.1 L 46.7,52 v -1 c 0,-0.8 0.7,-1.5 1.5,-1.5 0.8,0 1.5,0.7 1.5,1.5 v 1.1 l 15.4,15.1 v 4.7 h -2.8 v 16.4 h 2.8 v 8 h -3.8 l 2,24.1 -28.5,-12.6 1,-11.5 z m 33.1,38.6 0.5,5.9 -31.9,-14 0.5,-5.4 z m -30.6,-17.7 0.5,-5.4 29.2,12.9 0.5,5.8 z m -1.6,18.9 0.5,-5.4 32.6,14.4 0.5,5.8 z"
       id="path4"
       inkscape:connector-curvature="0"
       style="display:inline;fill:none" /><path
       class="st2"
       d="M 63.6,124.7 34.3,111.8 Z M 244.9,59.4 c -2.2,0 -3.9,1.8 -4,4 V 90.7 H 201 V 63.3 c 0,-2.2 -1.7,-3.9 -3.9,-3.9 -2.2,0 -3.9,1.7 -3.9,3.9 v 62.2 c 0,2.2 1.7,3.9 3.9,3.9 2.2,0 3.9,-1.7 3.9,-3.9 v 0 -27.6 h 39.9 v 27.7 c 0,2.2 1.7,3.9 3.8,4 2.2,0 3.9,-1.7 4,-3.8 v -0.1 -62.4 c 0,-2.1 -1.7,-3.9 -3.8,-3.9 z m 54.3,3.1 C 298.5,60.4 296.6,59 294.4,59 H 294 c -2.5,0 -4,1.3 -4.9,3.5 l -28,61.3 c -0.3,0.6 -0.5,1.4 -0.5,2.1 0,2 1.6,3.5 3.5,3.6 v 0 c 1.7,0 3.2,-1.1 3.8,-2.7 l 7.2,-16.1 H 313 l 7.2,15.9 c 0.6,1.7 2.1,2.8 3.9,2.9 2.1,0 3.8,-1.7 3.8,-3.8 v 0 c 0,-0.7 -0.2,-1.4 -0.5,-2 z m -21.1,41.1 15.9,-35.4 15.9,35.4 z m 91.2,-43.7 h -25.9 c -2.1,0 -3.9,1.8 -3.9,4 v 61.7 c 0,2.2 1.7,3.9 3.9,3.9 2.2,0 3.9,-1.7 3.9,-3.9 v 0 -23.4 h 20 l 19.5,25.3 c 0.8,1.2 2.2,2 3.7,2.1 2.1,-0.1 3.8,-1.7 4,-3.9 0,-1.1 -0.5,-2.1 -1.3,-2.9 L 376,100.7 c 10.8,-2.1 18.5,-8.7 18.5,-20.1 v -0.2 c 0.1,-5.1 -1.8,-10 -5.3,-13.6 -4.6,-4.4 -11.4,-6.9 -19.9,-6.9 z m 17.1,21 c 0,8.9 -7.4,14.2 -17.8,14.2 h -21.2 v -28 h 21.3 c 11.2,0 17.7,5.1 17.7,13.6 z m 62.5,12.3 c 5.4,-2.4 11,-7 11,-16 V 77 c 0.1,-4.1 -1.5,-8.1 -4.4,-11.1 -4,-3.9 -10.2,-6.1 -18.1,-6.1 h -25.6 c -2.1,0 -3.9,1.8 -3.9,4 V 125 c 0,2.1 1.7,3.9 3.9,3.9 h 26.9 c 15.1,0 25.1,-7 25.1,-18.9 v -0.2 c 0,-9.4 -6.7,-14.1 -14.9,-16.6 z M 415.7,66.9 h 21 c 9.9,0 15.3,4.4 15.3,11.3 v 0.2 c 0,8.1 -6.5,12.3 -15.9,12.3 h -20.4 z m 40.2,42.7 c 0,7.7 -6.5,12.3 -17,12.3 H 415.7 V 97.6 h 21.8 c 12,0 18.4,4.3 18.4,12 z m 52.6,-50.9 c -21,0 -35.4,16.7 -35.4,35.8 v 0.2 c 0,19.1 14.1,35.6 35.2,35.6 21.1,0 35.4,-16.7 35.4,-35.8 v -0.2 c 0,-19.1 -14.2,-35.6 -35.2,-35.6 z m 27.1,35.9 c 0,15.7 -11.3,28.3 -27.1,28.3 -15.8,0 -27.3,-12.8 -27.3,-28.5 v -0.2 c 0,-15.7 11.3,-28.3 27.1,-28.3 15.8,0 27.3,12.8 27.3,28.5 z m 51.2,-34.7 h -25.9 c -2.1,0 -3.9,1.8 -3.9,4 v 61.7 c 0,2.2 1.7,3.9 3.8,4 2.2,0 3.9,-1.7 4,-3.8 v -0.1 -23.4 h 19.9 l 19.5,25.3 c 0.8,1.2 2.2,2 3.7,2.1 2.1,-0.1 3.8,-1.7 4,-3.9 0,-1.1 -0.5,-2.1 -1.3,-2.9 l -17.2,-22.1 c 10.8,-2.1 18.5,-8.7 18.5,-20 v -0.2 c 0.1,-5.1 -1.8,-10 -5.3,-13.6 -4.5,-4.6 -11.3,-7.2 -19.8,-7.1 z m 17.1,21 c 0,8.9 -7.4,14.2 -17.8,14.2 h -21.2 v -28 h 21.3 c 11.2,0 17.7,5.1 17.7,13.6 z m -572.1,59.2 -1.2,13.1 c 10.8,6.9 23.3,10.8 36.1,11.1 L 66,155.2 Z m 2.9,-32.3 28.5,12.6 -2,-24.1 h 3.7 v -8 H 62.1 V 71.8 h 2.8 V 67.1 L 49.6,52.1 V 51 c 0,-0.8 -0.7,-1.4 -1.5,-1.4 -0.8,0 -1.4,0.6 -1.4,1.4 v 1.1 l -15.4,15 v 4.7 h 2.8 v 16.4 h -2.8 v 8 h 4.4 z m 3.8,-36 h 19.2 v 16.4 h -4.6 v -7 c 0,-2.8 -2.2,-5.1 -5,-5.1 -2.8,0 -5.1,2.2 -5.1,5 v 0.1 7 h -4.6 z m -5.5,54.9 31.9,14 -0.5,-5.8 -30.9,-13.6 c 0,-0.1 -0.5,5.4 -0.5,5.4 z m -0.3,4 -0.5,5.4 33.5,14.8 -0.5,-5.8 z m 1.6,-18.9 -0.5,5.4 30.2,13.3 -0.5,-5.8 c 0.1,0 -29.2,-12.9 -29.2,-12.9 z m 99.9,-53.3 12,-3.9 c -0.1,-0.1 -0.1,-0.2 -0.2,-0.3 -2.6,-5.1 -5.7,-9.9 -9.3,-14.4 l -11.3,5.8 c 3.5,4 6.4,8.3 8.8,12.8 z"
       id="path6"
       inkscape:connector-curvature="0"
       style="display:inline" /><path
       class="st2"
       d="m 131.5,65.3 c 0,0.1 0.1,0.2 0.1,0.3 l 3.4,-1.1 c -2.4,-4.5 -5.3,-8.8 -8.7,-12.7 l -3.3,1.7 c 3.3,3.5 6.1,7.5 8.5,11.8 z m 12.2,29.7 12.5,0.9 c -0.2,-4.3 -0.7,-8.6 -1.5,-12.8 l -12.6,0.4 c 0.9,3.8 1.4,7.6 1.6,11.5 z"
       id="path8"
       inkscape:connector-curvature="0"
       style="display:inline" /><path
       class="st2"
       d="m 138.5,83.7 c 0.8,3.6 1.4,7.3 1.6,11.1 l 3.6,0.3 c -0.2,-3.8 -0.8,-7.7 -1.6,-11.4 z"
       id="path10"
       inkscape:connector-curvature="0"
       style="display:inline" /><path
       class="st2"
       d="m 69.6,173.8 c -0.6,0 -1.1,0 -1.6,0 l 0.5,5.8 -37.7,-12 0.4,-4.5 C -3.9,141.9 -15.2,96.2 6.1,61.1 27.4,26 73,14.7 108.1,36 c 0.7,0.4 1.4,0.9 2.1,1.3 L 119,28.2 C 79.5,1 25.5,10.8 -1.7,50.2 c -27.2,39.4 -17.4,93.4 22,120.7 39.4,27.2 93.4,17.4 120.7,-22 6.1,-8.8 10.5,-18.7 13,-29.1 l -11.8,-4.1 c -7.6,33.9 -37.8,58.1 -72.6,58.1 z"
       id="path12"
       inkscape:connector-curvature="0"
       style="display:inline" /><path
       class="st2"
       d="m 69.6,170.3 c -0.6,0 -1.3,0 -1.9,0 l 0.3,3.5 c 0.5,0 1.1,0 1.6,0 34.8,0 64.9,-24.2 72.5,-58.1 l -3.3,-1.2 c -7.1,32.5 -35.9,55.7 -69.2,55.8 z M -1.1,99.5 c 0,-39 31.6,-70.7 70.7,-70.8 13.5,0 26.8,3.9 38.2,11.1 l 2.5,-2.6 C 75.8,14.9 29.8,24.6 7.4,59 -15,93.4 -5.3,139.4 29.1,161.8 c 0.7,0.5 1.4,0.9 2.1,1.3 l 0.4,-4 C 11.2,146.1 -1.1,123.7 -1.1,99.5 Z m 31.9,68.1 37.7,12 -0.5,-5.8 C 55,173.5 42.3,169.9 31.2,163.1 Z"
       id="path14"
       inkscape:connector-curvature="0"
       style="display:inline" /><path
       class="st2"
       d="m 31.2,163.1 c 11.1,6.7 23.8,10.4 36.8,10.7 l -0.3,-3.5 C 54.9,170 42.4,166.1 31.6,159.2 Z m 95.2,-111.4 11.3,-5.8 c -0.5,-0.6 -1,-1.3 -1.5,-1.9 -4.4,-5.2 -9.4,-10 -14.8,-14 -0.8,-0.6 -1.6,-1.2 -2.4,-1.7 l -8.8,9.1 c 6.1,3.9 11.5,8.7 16.2,14.3 z"
       id="path16"
       inkscape:connector-curvature="0"
       style="display:inline" /><path
       class="st2"
       d="m 66.6,82.6 56.6,-29.3 3.3,-1.7 C 121.8,46 116.3,41.2 110.3,37.2 l -2.5,2.6 z m 56.6,-29.2 3.3,-1.7 z m 33,42.5 -12.5,-0.9 c 0.1,1.5 0.2,3 0.2,4.5 0,5.4 -0.6,10.8 -1.8,16.1 l 11.8,4.1 c 0,-0.2 0.1,-0.4 0.1,-0.5 1.5,-6.5 2.3,-13.1 2.3,-19.7 0,-0.2 0,-0.5 0,-0.7 0,-0.9 0,-1.9 -0.1,-2.9 z"
       id="path18"
       inkscape:connector-curvature="0"
       style="display:inline" /><path
       class="st2"
       d="m 143.7,95 -3.6,-0.3 -73.6,-5.3 72.2,25 3.3,1.2 c 1.2,-5.3 1.8,-10.7 1.8,-16.1 0.1,-1.5 0,-3 -0.1,-4.5 z m -1.5,-11.5 12.6,-0.4 c -0.2,-1.2 -0.5,-2.5 -0.8,-3.7 -1.6,-6.5 -3.9,-12.8 -6.9,-18.8 l -12,3.9 c 3.2,5.9 5.6,12.4 7.1,19 z"
       id="path20"
       inkscape:connector-curvature="0"
       style="display:inline" /><path
       class="st2"
       d="m 67.7,86.1 70.8,-2.4 3.6,-0.1 C 140.6,76.9 138.3,70.5 135,64.5 l -3.4,1.1 z"
       id="path22"
       inkscape:connector-curvature="0"
       style="display:inline" /></g><g
     id="g831"
     transform="translate(-0.4,-1.1500031)"><polygon
       transform="translate(0,2.3000031)"
       style="fill:#4400aa"
       id="polygon26"
       points="170.3,118.6 170.3,28.9 80.7,28.9 110.6,58.9 140.4,58.9 140.4,88.7 "
       class="st3" /><polygon
       transform="translate(0,2.3000031)"
       style="fill:#4400aa"
       id="polygon28"
       points="120.2,168.8 90.2,138.8 60.5,138.8 60.5,109 30.5,79.1 30.5,168.8 "
       class="st3" /><polygon
       transform="translate(0,2.3000031)"
       style="fill:#7f2aff"
       id="polygon30"
       points="51.7,28.9 30.5,28.9 30.5,50.1 60.5,80.1 60.5,37.7 "
       class="st3" /><polygon
       transform="translate(0,2.3000031)"
       style="fill:#7f2aff"
       id="polygon32"
       points="68.7,46 68.7,88.3 149.2,168.8 170.3,168.8 170.3,147.6 "
       class="st3" /></g></svg>